<?xml version="1.0" encoding="utf-8"?>
<!-- Generator: Adobe Illustrator 26.1.0, SVG Export Plug-In . SVG Version: 6.00 Build 0)  -->
<svg version="1.1" id="Layer_1" xmlns="http://www.w3.org/2000/svg" xmlns:xlink="http://www.w3.org/1999/xlink" x="0px" y="0px"
	 viewBox="0 0 16 16" style="enable-background:new 0 0 16 16;" xml:space="preserve">
<style type="text/css">
	.st0{fill:#2E9933;}
</style>
<path class="st0" d="M16,8c0,4.4-3.6,8-8,8s-8-3.6-8-8s3.6-8,8-8S16,3.6,16,8z M12,5c-0.3-0.3-0.8-0.3-1.1,0c0,0,0,0,0,0L7.5,9.4
	L5.4,7.3C5.1,7,4.6,7.1,4.3,7.4c-0.3,0.3-0.3,0.7,0,1L7,11c0.3,0.3,0.8,0.3,1.1,0c0,0,0,0,0,0l4-5C12.3,5.7,12.3,5.3,12,5L12,5z"/>
</svg>
