<?xml version="1.0" encoding="UTF-8" standalone="no"?><!DOCTYPE svg PUBLIC "-//W3C//DTD SVG 1.1//EN" "http://www.w3.org/Graphics/SVG/1.1/DTD/svg11.dtd"><svg width="100%" height="100%" viewBox="0 0 800 800" version="1.1" xmlns="http://www.w3.org/2000/svg" xmlns:xlink="http://www.w3.org/1999/xlink" xml:space="preserve" xmlns:serif="http://www.serif.com/" style="fill-rule:evenodd;clip-rule:evenodd;stroke-linejoin:round;stroke-miterlimit:2;"><path d="M603.038,85.741c-54.707,-55.291 -126.778,-85.741 -203.038,-85.741c-76.26,0 -148.377,30.45 -203.038,85.741c-54.12,54.747 -83.919,126.212 -83.919,201.219c0,82.413 39.762,141.91 90.155,217.208c41.479,62.025 93.044,139.167 136.74,253.054c5.945,16.073 25.071,42.778 60.062,42.778c34.782,0 53.991,-25.323 59.893,-40.308l0.083,-0.292c43.865,-115.309 95.679,-193.078 137.284,-255.564c50.101,-75.256 89.692,-134.691 89.692,-216.874c0.002,-75.009 -29.794,-146.474 -83.914,-201.221Z" style="fill:#ed5564;fill-rule:nonzero;"/><path d="M113.043,286.96c0,82.413 39.762,141.91 90.155,217.208c41.479,62.025 93.044,139.167 136.74,253.054c5.945,16.073 25.071,42.778 60.062,42.778c34.782,0 53.991,-25.323 59.893,-40.308l0.083,-0.292c43.865,-115.309 95.679,-193.078 137.284,-255.564c50.101,-75.256 89.692,-134.691 89.692,-216.874l-0,-1.256l-573.909,-0l0,1.254Z" style="fill:#e6e9ed;fill-rule:nonzero;"/><path d="M113.043,286.96c0,9.394 0.544,18.478 1.506,27.331l570.905,0c0.956,-8.853 1.503,-17.934 1.503,-27.331c-0,-10.003 -0.544,-19.966 -1.586,-29.821l-570.737,0c-1.05,9.855 -1.591,19.815 -1.591,29.821Z" style="fill:#434a54;fill-rule:nonzero;"/><path d="M485.719,286.96c0,47.358 -38.382,85.719 -85.719,85.719c-47.337,-0 -85.719,-38.358 -85.719,-85.719c-0,-47.338 38.382,-85.72 85.719,-85.72c47.337,0 85.719,38.38 85.719,85.72Z" style="fill:#e6e9ed;fill-rule:nonzero;"/><path d="M400.003,401.264c-63.035,0 -114.308,-51.272 -114.308,-114.304c0,-63.014 51.273,-114.287 114.308,-114.287c63.032,0 114.307,51.273 114.307,114.287c-0.002,63.035 -51.278,114.304 -114.307,114.304Zm-0,-171.438c-31.519,-0 -57.134,25.636 -57.134,57.134c0,31.516 25.615,57.152 57.134,57.152c31.516,-0 57.131,-25.636 57.131,-57.152c-0,-31.498 -25.615,-57.134 -57.131,-57.134Z" style="fill:#434a54;fill-rule:nonzero;"/></svg>