<?xml version="1.0" encoding="UTF-8"?>
<svg width="700pt" height="700pt" version="1.1" viewBox="0 0 700 700" xmlns="http://www.w3.org/2000/svg" xmlns:xlink="http://www.w3.org/1999/xlink">
 <defs>
  <symbol id="w" overflow="visible">
   <path d="m0.03125 0h-0.015625-0.015625v-0.015625-0.015625h0.015625 0.015625-0.015625v0.015625 0.015625h0.015625v-0.015625z"/>
  </symbol>
  <symbol id="e" overflow="visible">
   <path d="m0.015625-0.015625v0.015625h-0.015625v-0.03125h0.015625v0.015625-0.015625z"/>
  </symbol>
  <symbol id="b" overflow="visible">
   <path d="m0.03125-0.015625h-0.015625v0.015625c0.0078125 0 0.015625-0.0039062 0.015625-0.015625v0.015625h-0.015625-0.015625v-0.015625l0.015625-0.015625v0.015625h0.015625z"/>
  </symbol>
  <symbol id="a" overflow="visible">
   <path d="m0.015625-0.015625v0.015625-0.015625zm0.015625 0v0.015625h-0.015625-0.015625v-0.015625h0.015625-0.015625v-0.015625h0.015625v0.015625h0.015625z"/>
  </symbol>
  <symbol id="d" overflow="visible">
   <path d="m0.015625-0.03125v0.015625 0.015625h-0.015625v-0.015625-0.015625z"/>
  </symbol>
  <symbol id="l" overflow="visible">
   <path d="m0.015625-0.015625v-0.015625h0.015625v0.03125h-0.015625-0.015625v-0.015625l0.015625-0.015625v0.015625zm0 0.015625v-0.015625 0.015625z"/>
  </symbol>
  <symbol id="k" overflow="visible">
   <path d="m0.015625 0v-0.015625 0.015625zm0-0.015625v-0.015625c0.0078125 0 0.015625 0.0078125 0.015625 0.015625v0.015625h-0.015625-0.015625v-0.03125h0.015625z"/>
  </symbol>
  <symbol id="j" overflow="visible">
   <path d="m0-0.03125h0.015625v0.015625-0.015625h0.015625l-0.015625 0.03125v0.015625h-0.015625v-0.015625h0.015625z"/>
  </symbol>
  <symbol id="i" overflow="visible">
   <path d="m0.015625-0.03125v0.015625 0.015625h0.015625v-0.015625c0-0.0078125-0.0078125-0.015625-0.015625-0.015625zm0 0h0.015625v0.015625 0.015625h-0.015625-0.015625v-0.015625-0.015625h0.015625z"/>
  </symbol>
  <symbol id="v" overflow="visible">
   <path d="m0-0.03125h0.015625v0.03125h-0.015625z"/>
  </symbol>
  <symbol id="f" overflow="visible">
   <path d="m0.03125-0.015625v0.015625h-0.015625v-0.015625 0.015625h-0.015625v-0.03125h0.015625v0.015625-0.015625c0.0078125 0 0.015625 0.0078125 0.015625 0.015625z"/>
  </symbol>
  <symbol id="h" overflow="visible">
   <path d="m0-0.03125h0.015625 0.015625v0.015625h-0.015625v0.015625h-0.015625zm0.015625 0v0.015625-0.015625z"/>
  </symbol>
  <symbol id="g" overflow="visible">
   <path d="m0.03125-0.03125v0.015625h-0.015625c0.0078125 0 0.015625 0.0078125 0.015625 0.015625h-0.015625-0.015625 0.015625v-0.015625h-0.015625l0.015625-0.015625h0.015625z"/>
  </symbol>
  <symbol id="c" overflow="visible">
   <path d="m0.015625-0.015625v0.015625-0.015625zm0-0.015625v0.015625h0.015625c0 0.011719-0.0078125 0.015625-0.015625 0.015625h-0.015625v-0.015625l0.015625-0.015625z"/>
  </symbol>
  <symbol id="u" overflow="visible">
   <path d="m0-0.03125h0.015625v0.015625-0.015625h0.015625l-0.015625 0.03125z"/>
  </symbol>
  <symbol id="t" overflow="visible">
   <path d="m0-0.03125h0.015625v0.015625-0.015625h0.015625l-0.015625 0.015625 0.015625 0.015625h-0.015625v-0.015625 0.015625h-0.015625z"/>
  </symbol>
  <symbol id="s" overflow="visible">
   <path d="m0.015625-0.03125v0.03125h-0.015625v-0.03125h0.015625z"/>
  </symbol>
  <symbol id="r" overflow="visible">
   <path d="m0.03125-0.015625v-0.015625c0.0078125 0 0.015625 0.0078125 0.015625 0.015625v0.015625h-0.015625v-0.015625 0.015625h-0.015625v-0.015625 0.015625h-0.015625v-0.03125h0.015625v0.015625-0.015625 0.015625h0.015625z"/>
  </symbol>
  <symbol id="q" overflow="visible">
   <path d="m0.03125-0.015625v0.015625h-0.015625v-0.015625 0.015625h-0.015625v-0.03125h0.015625v0.015625-0.015625c0.0078125 0 0.015625 0.0078125 0.015625 0.015625z"/>
  </symbol>
  <symbol id="p" overflow="visible">
   <path d="m0-0.03125h0.015625l0.015625 0.015625v-0.015625 0.03125l-0.015625-0.015625v0.015625h-0.015625z"/>
  </symbol>
  <symbol id="o" overflow="visible">
   <path d="m0-0.015625v-0.015625h0.015625v0.015625 0.015625-0.015625-0.015625h0.015625v0.03125h-0.015625-0.015625v-0.015625z"/>
  </symbol>
  <symbol id="n" overflow="visible">
   <path d="m0-0.03125h0.015625v0.03125h-0.015625v0.015625zm0 0h0.015625z"/>
  </symbol>
  <symbol id="m" overflow="visible">
   <path d="m0.03125-0.03125v0.015625h-0.015625v0.015625h0.015625-0.015625-0.015625v-0.015625l0.015625-0.015625h0.015625z"/>
  </symbol>
 </defs>
 <g>
  <path d="m267.73 233.53c1.5312-4.1641 3.4062-8.2969 5.582-12.281 6-10.949 14.41-20.832 24.77-26.891 10.586-6.1875 23.102-8.3828 37.016-3.6953 2.332 0.78516 4.7031 1.7656 7.0859 2.9414 9.707-10.93 23.117-17.875 36.961-20 7.3359-1.1289 14.801-0.90625 21.926 0.78516 7.1602 1.6992 13.961 4.8984 19.938 9.707 9.3633 7.5508 16.586 19.02 19.73 34.887 7.3438-1.1836 15.605-0.94141 24.715 1.5664 4.3203 1.168 8.5664 2.7812 12.676 4.7891 11.77 5.75 22.391 14.766 30.008 25.816 7.6641 11.117 12.293 24.312 12.012 38.352-0.24219 12.461-4.3398 25.516-13.598 38.305 6.3672 4.4688 9.0547 12.172 8.7734 20.598-0.14844 4.5469-1.168 9.2852-2.9297 13.805-1.7656 4.5078-4.2852 8.8281-7.4375 12.523-6.5508 7.6914-15.781 12.691-26.684 11.312 0.72656 3.7422 0.92578 7.4375 0.64453 11.012-0.26172 7.7578-2.6602 14.551-6.3477 19.051-3.4062 5.4141-7.9883 10.016-13.32 13.41-6.1133 3.8906-13.215 6.1992-20.645 6.3203-8.8125 0.14062-18.031-2.7734-26.582-9.7148-4.75 16.035-14.801 25.75-26.844 30.668-8.1289 3.3242-17.137 4.4062-25.992 3.7539-8.7812-0.65234-17.461-3.0352-25.004-6.6562-1.0938-0.52344-2.1562-1.0742-3.2031-1.6523-0.039063-0.019532-0.066406-0.039063-0.10156-0.054688l-0.019531-0.007812c-9.4648-5.2656-16.742-12.609-19.637-21.008-6.1992 4.5352-14.242 7.0742-22.902 7.6172-9.668 0.60547-20.168-1.2617-29.707-5.5898-9.5938-4.3477-18.258-11.199-24.203-20.535-5.9648-9.3633-9.1562-21.148-7.7852-35.316-8-1.25-18.676-9.3438-26.676-20.691-3.7969-5.375-7.0664-11.516-9.2227-18.012-2.1836-6.5781-3.2188-13.516-2.4844-20.355 1.5977-14.961 11.395-29.344 35.512-38.641-0.71094-2.6406-1.1016-5.4492-1.1211-8.4375-0.039063-1.1016-0.019531-2.2109 0.046875-3.332 0.35547-5.918 2.1641-12.02 5.75-17.426 3.5859-5.4023 8.9219-10.09 16.305-13.16 6.1797-2.5664 13.785-3.9961 22.988-3.7422zm-116.62 215.3c6.3672-6.7773 5.1133-12.938 0.24219-17.547-4.7305-4.4805-12.488-7.7734-20.496-9.2227-7.9336-1.4297-15.969-1.0352-21.344 1.8398-6.2891 3.3594-8.6445 10.836-1.6445 23.949 0.64453 1.2148 0.48438 2.6406-0.30859 3.668-5.4336 7.0273-6.1055 13.898-4.0117 19.852 1.3633 3.9023 3.9023 7.4844 7.0742 10.539 3.2383 3.1172 7.1211 5.6484 11.09 7.375 6.8047 2.9688 13.691 3.6016 17.586 0.67188 1.4922-1.1289 3.6289-0.83203 4.7617 0.66406 0.027344 0.046875 0.066406 0.085937 0.09375 0.12891 8.8555 10.938 17.938 10.527 24.66 5.1523 4.043-3.2383 7.3555-8.1562 9.4375-13.57 2.0625-5.3867 2.8672-11.164 1.8945-16.148-1.6797-8.6328-9.2852-14.848-26.004-11.602-1.8398 0.35547-3.6211-0.85938-3.9766-2.6992-0.22266-1.1562 0.17578-2.2852 0.95312-3.0625zm4.9297-22.457c5.9922 5.6758 8.5664 12.777 4.7148 20.551 16.164-0.79297 23.988 7.3633 26.051 17.984 1.2148 6.2539 0.26953 13.348-2.2227 19.832-2.4844 6.4688-6.5352 12.422-11.555 16.445-9.1016 7.2812-21.02 8.4453-32.434-4.1719-5.9062 2.6602-13.961 1.8203-21.605-1.5117-4.6758-2.043-9.25-5.0312-13.074-8.707-3.8906-3.7422-7.0391-8.2227-8.7812-13.199-2.6211-7.4844-2.082-15.941 3.7695-24.473-8.0469-16.344-3.875-26.254 5.4141-31.211 6.7852-3.6211 16.426-4.2109 25.73-2.5312 9.2305 1.6602 18.285 5.582 23.988 10.977zm383.19 17.629c-3.8555-7.7852-1.2773-14.879 4.7148-20.551 5.7031-5.3945 14.758-9.3164 23.988-10.977 9.3047-1.6797 18.945-1.0938 25.73 2.5312 9.2852 4.957 13.449 14.867 5.4141 31.211 5.8516 8.5312 6.3945 16.977 3.7695 24.473-1.7461 4.9766-4.8828 9.4531-8.7812 13.199-3.8281 3.6758-8.3984 6.6641-13.074 8.707-7.6328 3.332-15.688 4.1719-21.605 1.5117-11.414 12.617-23.332 11.453-32.434 4.1719-5.0195-4.0234-9.082-9.9766-11.555-16.445-2.4922-6.4961-3.4336-13.59-2.2227-19.844 2.0625-10.621 9.8828-18.777 26.051-17.984zm9.3984-15.633c-4.8633 4.6094-6.1211 10.762 0.24219 17.547 0.78516 0.76562 1.1758 1.9023 0.95312 3.0625-0.35547 1.8398-2.1289 3.0508-3.9766 2.6992-16.715-3.2461-24.324 2.9688-26.004 11.602-0.96875 4.9766-0.16797 10.762 1.8945 16.148 2.0703 5.4141 5.3867 10.34 9.4375 13.57 6.7188 5.375 15.801 5.7773 24.66-5.1523 0.027343-0.046875 0.066406-0.085937 0.09375-0.12891 1.1289-1.4922 3.2578-1.793 4.7617-0.66406 3.8906 2.9297 10.781 2.3047 17.586-0.67188 3.9648-1.7344 7.8398-4.2656 11.09-7.375 3.1719-3.0508 5.7109-6.6367 7.0742-10.539 2.082-5.9531 1.4102-12.824-4.0117-19.852-0.79297-1.0273-0.95313-2.4531-0.30859-3.668 7-13.121 4.6484-20.59-1.6445-23.949-5.3867-2.875-13.41-3.2656-21.344-1.8398-8.0156 1.4453-15.766 4.7422-20.496 9.2227zm-384.38-344.05c-11.273 8.8477-7.0469 18.211-2.7617 27.703 0.80078 1.7812 1.6133 3.5742 2.332 5.3281 0.71094 1.7344-0.12891 3.7227-1.875 4.4258-1.7344 0.71094-3.7227-0.12891-4.4258-1.875-0.69922-1.7266-1.4648-3.4062-2.2227-5.0977-1.8398-4.0781-3.668-8.1289-4.668-12.188-5.1992-2.3047-9.8672-1.7812-13.449 0.33594-1.9961 1.1758-3.6953 2.8555-5.0039 4.8242-1.3164 1.9883-2.2109 4.2461-2.5742 6.5508-0.72656 4.5352 0.57031 9.3242 4.668 12.656 0.72656 0.59766 1.2148 1.4844 1.25 2.5 0.074218 1.875-1.3828 3.4531-3.2578 3.5195-8.5977 0.35547-13.98 3.875-16.762 8.4375-1.3711 2.2578-2.1367 4.7891-2.3516 7.3281-0.22266 2.5742 0.11328 5.125 0.91406 7.375 1.3516 3.7695 4.0586 6.7188 7.7266 7.4648 0.26172 0.039063 0.52344 0.10156 0.77344 0.20703 1.7461 0.67969 2.6133 2.6523 1.9336 4.3945-2.1094 5.375-0.027344 10.117 4.1328 13.488 2.9883 2.418 7.0078 4.1914 11.426 5.0859 4.4414 0.90625 9.25 0.90625 13.746-0.23437 8.7344-2.2031 16.332-8.8555 17.723-21.738 0.027344-0.28125 0.09375-0.55078 0.19531-0.82031 0.65234-1.7539 2.6055-2.6523 4.3594-1.9961 1.9023 0.71094 4.1719 0.71094 6.5703 0.10156 3.4609-0.87891 7.0938-2.9883 10.324-6.0195 3.293-3.0977 6.1133-7.1289 7.8477-11.77 1.9414-5.1719 2.5391-11.117 0.95312-17.414-0.09375-0.35547-0.14062-0.73828-0.11328-1.1211 0.12891-1.875 1.7539-3.2852 3.6289-3.1562 5.3672 0.38281 8.793-2.3789 10.461-6.4414 1.2422-3.0156 1.625-6.7383 1.1953-10.539-0.4375-3.8438-1.6992-7.6992-3.7227-10.922-3.4609-5.4961-9.2773-9.1172-17.09-7.3281-1.1094 0.33594-2.3711 0.09375-3.2852-0.74609-6.1406-5.6562-12.738-7.207-18.609-6.3359-3.6602 0.54297-7.0547 1.9883-9.9023 3.9492l-0.085938 0.054688zm13.449 84.941c-2.7539 13.887-11.871 21.27-22.262 23.883-5.4883 1.3828-11.34 1.3906-16.754 0.28906-5.4492-1.1094-10.5-3.3594-14.344-6.4688-5.5352-4.4805-8.6328-10.629-7.207-17.762-4.4805-1.9961-7.7266-5.9844-9.4531-10.77-1.1484-3.1836-1.6133-6.7109-1.3164-10.219 0.30859-3.5391 1.3828-7.1016 3.3398-10.305 3.0508-5.0039 8.1836-9.1016 15.734-10.828-2.5742-4.2383-3.293-9.1289-2.5391-13.812 0.53125-3.2852 1.7812-6.457 3.6133-9.2383 1.8477-2.7891 4.3008-5.1992 7.2344-6.9258 4.4258-2.6055 9.8477-3.6406 15.773-2.0625 0.23437-2.3906 1.0547-4.8242 2.3711-7.168 1.9141-3.3984 4.8984-6.6367 8.5859-9.1836 3.668-2.5312 8.0469-4.4062 12.777-5.0977 7.2969-1.0742 15.371 0.61719 22.867 6.9062 10.406-1.8008 18.164 3.1914 22.84 10.621 2.5859 4.1055 4.1914 8.9805 4.7422 13.793 0.55078 4.8711 0.019531 9.7617-1.6719 13.859-2.2773 5.5234-6.5156 9.6055-12.891 10.508 0.84766 6.2422 0 12.145-1.9805 17.406-2.1289 5.6758-5.5547 10.586-9.5586 14.344-4.0586 3.8281-8.7539 6.5156-13.328 7.6719-2.2383 0.57031-4.4609 0.76562-6.5898 0.57031zm320.8-94.707c1.457 3.7969 2.8086 6.9922 4.4414 9.5312 0.16797 0.19531 0.31641 0.42188 0.4375 0.66406 0.84766 1.2227 1.7734 2.2773 2.8203 3.1719 3.4453 2.9297 8.6328 4.3867 17.461 4.4258 1.875 0.007813 3.3867 1.5312 3.3789 3.4062-0.007812 1.875-1.5312 3.3867-3.4062 3.3789-10.621-0.046875-17.125-2.0352-21.82-6.0195-1.0078-0.85938-1.9219-1.793-2.7539-2.8086-1.5977 0.75781-2.8281 1.9141-3.7422 3.332-1.0352 1.6133-1.6797 3.5938-1.9414 5.7305-0.28125 2.25-0.14844 4.6211 0.36328 6.9062 0.96875 4.3203 3.2656 8.3086 6.6445 10.48 0.085938 0.054688 0.16016 0.11328 0.24219 0.16797 4.5078 3.4727 9.4258 5.1445 14.523 5.6094 5.2344 0.48438 10.707-0.28125 16.164-1.6602 1.0156-0.31641 2.1641-0.14844 3.0781 0.55859 1.4844 1.1484 1.7539 3.2773 0.61719 4.7617-1.5664 2.0352-2.6406 4.6836-3.0781 7.5703-0.44922 2.9766-0.20703 6.1602 0.88672 9.1562 1.082 2.9766 3.0234 5.7969 5.9648 8.0625 3.0156 2.3242 7.1211 4.0898 12.496 4.8984v0.007813c0.46484 0.074219 0.93359 0.24219 1.3516 0.52344 2.875 1.8867 6.0742 2.3164 9.1641 1.7461 3.0625-0.55859 6.0312-2.1016 8.5195-4.1914 2.4727-2.082 4.4336-4.6758 5.4688-7.3828 0.94141-2.4727 1.1016-5.0117 0.12109-7.2422h0.007812c-0.57812-1.3164-0.28125-2.9023 0.85938-3.9023 4.6094-4.0977 6.3555-8.0742 6.3203-11.609-0.027344-2.3789-0.86719-4.6562-2.1836-6.6641-1.3828-2.1172-3.2773-3.9375-5.3125-5.3203-3.1836-2.1562-6.4766-3.2031-8.3438-2.5117-0.77344 0.28125-1.6523 0.28906-2.4727-0.054688-1.7344-0.71875-2.5586-2.707-1.8398-4.4414 2.1367-5.1328 1.9141-10.164 0.10156-14.617-1.2969-3.1836-3.3711-6.0742-5.9531-8.5312-2.6328-2.4922-5.8164-4.5469-9.2695-5.9844-6.1211-2.5469-13-3.0977-19.051-0.69141-0.23438 0.10156-0.47656 0.1875-0.73828 0.24219-1.8398 0.36328-3.6289-0.83203-4.0039-2.668-1.5312-7.625-4.4805-11.191-7.793-12.105-3.1836-0.87891-6.9531 0.51172-10.238 3.0352-3.5078 2.6992-6.3359 6.5977-7.3555 10.473-0.054688 0.20703-0.10156 0.41016-0.14062 0.61719zm-4.3125 10.695c-2.8828-3.7969-3.3125-8.418-2.1094-13.02 1.3984-5.3281 5.1523-10.586 9.7734-14.141 4.8516-3.7344 10.762-5.7031 16.191-4.1992 4.9648 1.3711 9.3164 5.5078 11.742 13.625 6.8242-1.7188 14.113-0.83984 20.637 1.875 4.1719 1.7344 8.0547 4.2461 11.312 7.3359 3.3047 3.125 5.9531 6.8242 7.6055 10.891 1.875 4.6211 2.5 9.6875 1.3906 14.934 2.8203 0.47656 5.8711 1.7461 8.6602 3.6406 2.7422 1.8555 5.3008 4.332 7.207 7.2344 1.9688 3.0156 3.2305 6.5156 3.2773 10.312 0.054688 4.8633-1.8867 10.078-6.9336 15.176 0.83984 3.3125 0.46484 6.7773-0.78516 10.07-1.4453 3.7891-4.1172 7.375-7.457 10.184-3.332 2.8008-7.3906 4.8633-11.656 5.6484-4.4805 0.83203-9.1484 0.25391-13.441-2.332-6.2539-1.0352-11.191-3.2383-14.953-6.1406-4.0312-3.0977-6.6914-6.9922-8.1953-11.117-1.5039-4.1172-1.8398-8.4453-1.2305-12.48 0.19531-1.3359 0.50391-2.6328 0.90625-3.8906-3.875 0.58984-7.7461 0.79297-11.562 0.4375-6.2734-0.57812-12.328-2.6211-17.91-6.8789-4.9102-3.1914-8.1758-8.7461-9.5117-14.652-0.69141-3.0625-0.86719-6.2344-0.50391-9.2109 0.38281-3.0977 1.3633-6.0586 2.9766-8.5781 1.1953-1.8555 2.7148-3.4609 4.5938-4.7031zm5.375 320.63c-0.83203-0.4375-1.1484-1.4648-0.71094-2.2969 0.019532-0.027344 0.027344-0.054688 0.046876-0.085938 0.019531-0.039062 0.039062-0.066406 0.054687-0.10156 0.50391-0.79297 1.5586-1.0156 2.3438-0.51172l0.625 0.40234 33.234 17.508c0.57812 0.30859 0.90625 0.89453 0.90625 1.5039l0.16016 3.7812c0.027344 0.36328-0.046875 0.73828-0.26172 1.0625-0.50391 0.79297-1.5586 1.0156-2.3438 0.51172l-33.414-21.438-0.64453-0.33594zm-8.9688-2.9219 0.007812-0.007813c0.82031-0.45703 1.8477-0.16016 2.3047 0.65234l0.33594 0.59766 22.262 32.93c0.52344 0.77344 0.31641 1.8398-0.45703 2.3633-0.33594 0.22266-0.72656 0.31641-1.1094 0.28125l-3.7539-0.066406c-0.60547 0.007812-1.1953-0.30859-1.5117-0.86719l-18.273-32.77-0.4375-0.64453c-0.52344-0.77344-0.31641-1.8398 0.45703-2.3633 0.054687-0.039062 0.11328-0.074218 0.17578-0.10156zm-286.79-8.0078c0.019531 0.027344 0.039063 0.054687 0.046875 0.085937 0.4375 0.83203 0.12109 1.8555-0.71094 2.2969l-0.64453 0.33594-33.414 21.438c-0.79297 0.50391-1.8398 0.28125-2.3438-0.51172-0.21484-0.32812-0.29688-0.71094-0.26172-1.0625l0.16016-3.7812c0-0.60547 0.32813-1.2031 0.90625-1.5039l33.234-17.508 0.625-0.40234c0.79297-0.50391 1.8398-0.28125 2.3438 0.51172 0.019531 0.039063 0.039062 0.066407 0.054687 0.10156zm5.9922 0.11328c0.45703-0.82031 1.4844-1.1094 2.3047-0.65234l0.007813 0.007813c0.054687 0.027344 0.12109 0.066406 0.17578 0.10156 0.77344 0.52344 0.98047 1.5781 0.45703 2.3633l-0.4375 0.64453-18.273 32.77c-0.31641 0.57031-0.90625 0.87891-1.5117 0.86719l-3.7539 0.066406c-0.375 0.039063-0.76562-0.054687-1.1094-0.28125-0.77344-0.52344-0.98047-1.5781-0.45703-2.3633l22.262-32.93 0.33594-0.59766zm50.156-196.81c-0.046875 0.046875-0.10156 0.085938-0.16016 0.12891-0.76562 0.54297-1.8281 0.35547-2.3633-0.41016l-0.71094-1.0078-39.555-47.078c-0.28125-0.26953-0.46484-0.64453-0.50391-1.0625-0.085938-0.93359 0.61719-1.7656 1.5508-1.8398l6.0938-0.52344c0.57812-0.046876 1.1758 0.20703 1.5312 0.71875l33.637 47.805 0.72656 0.85938c0.59766 0.71875 0.51172 1.7812-0.20703 2.3906l-0.039062 0.027344zm-26.02-33.676-10.312-14.652-1.8672 0.16016 12.18 14.496zm27.199 44.605c0.86719 0.34375 1.2891 1.3359 0.94141 2.2031-0.019531 0.039062-0.027343 0.074219-0.046874 0.11328-0.019532 0.039062-0.039063 0.085938-0.054688 0.12109-0.42188 0.83984-1.4453 1.1758-2.2773 0.74609l-1.0547-0.53125-54.227-21.691c-0.57812-0.23438-0.96094-0.75781-1.0469-1.3242l-0.89453-6.0469c-0.14062-0.93359 0.50391-1.793 1.4375-1.9336 0.39062-0.054688 0.76562 0.027344 1.082 0.20703l55.039 27.691 1.0938 0.4375zm-54.543-21.82 16.605 6.6445-16.883-8.4922 0.26953 1.8477zm263.1-0.91406c-0.54297 0.76562-1.5977 0.95312-2.3633 0.41016-0.054687-0.039063-0.11328-0.085937-0.16016-0.12891l-0.039062-0.027344c-0.71875-0.60547-0.8125-1.6719-0.20703-2.3906l0.72656-0.85938 33.637-47.805c0.36328-0.51172 0.95312-0.76563 1.5312-0.71875l6.0938 0.52344c0.93359 0.085937 1.6328 0.90625 1.5508 1.8398-0.039063 0.42188-0.22266 0.79297-0.50391 1.0625l-39.555 47.078-0.71094 1.0078zm33.805-48.047-10.312 14.652 12.18-14.496-1.8672-0.16016zm-38.406 61.57c-0.019531-0.039062-0.039062-0.074218-0.046875-0.11328-0.34375-0.86719 0.074219-1.8555 0.94141-2.2031l1.0938-0.4375 55.039-27.691c0.31641-0.17578 0.69922-0.26172 1.082-0.20703 0.93359 0.14063 1.5664 1 1.4375 1.9336l-0.89453 6.0469c-0.085937 0.57812-0.46484 1.0938-1.0469 1.3242l-54.227 21.691-1.0547 0.53125c-0.83984 0.42188-1.8555 0.085938-2.2773-0.74609-0.019531-0.039062-0.039062-0.085937-0.054687-0.12109zm38.836-17.492 16.605-6.6445 0.26953-1.8477-16.883 8.4922zm-198.45 56.336c0.019531 1.875-1.4922 3.3984-3.3594 3.4141-1.875 0.019531-3.3984-1.4922-3.4141-3.3594-0.027344-3.332 2.1289-7.1758 5.6641-10.648 2.9414-2.8828 6.9258-5.6484 11.395-7.6992 4.5-2.0625 9.5312-3.4141 14.559-3.4531 6.3828-0.046874 12.684 1.9805 17.855 7.2422 1.3164 1.3359 1.2969 3.4805-0.039062 4.7969s-3.4805 1.2969-4.7969-0.039063c-3.7227-3.7969-8.3086-5.2656-12.965-5.2266-4.0039 0.027344-8.0938 1.1484-11.797 2.8477-3.7344 1.707-7.0391 4.0039-9.4531 6.375-2.2773 2.2305-3.6602 4.332-3.6484 5.7578zm-71.559 15.707c-1.6328 3.1562-2.7734 6.1875-3.4922 9.0703-0.69922 2.8086-0.98828 5.4688-0.94141 7.9805 0.16797 3.1367 0.83203 6.1133 1.9141 8.7344h-0.007813c0.027344 0.066406 0.054688 0.12891 0.074219 0.19531 0.12109 0.35547 0.17578 0.71094 0.1875 1.0625 0.40234 0.92578 0.84766 1.8203 1.3438 2.6797 3.2109 5.6016 8.1562 9.7617 13 12.293 1.9961 1.0469 3.9844 1.8008 5.8242 2.2578 1.8203 0.45703 2.9297 2.2969 2.4727 4.1172-0.45703 1.8203-2.2969 2.9297-4.1172 2.4727-2.2969-0.57031-4.7891-1.5312-7.3086-2.8477-5.8711-3.0625-11.863-8.1211-15.766-14.926-0.30859-0.54297-0.60547-1.0938-0.88672-1.6523-21.254 8.1953-29.84 20.43-31.184 33.031-0.625 5.8438 0.26953 11.809 2.1641 17.52 1.9219 5.7969 4.8828 11.332 8.3438 16.238 8.1562 11.555 18.602 19.375 24.004 17.883 0.46484-0.14062 0.96875-0.17578 1.4766-0.10156 1.8555 0.28125 3.1367 2.0078 2.8555 3.8633-2.1641 14.188 0.60547 25.73 6.2812 34.625 5.1797 8.1367 12.805 14.141 21.281 17.984 8.5312 3.875 17.891 5.543 26.488 5.0039 8.8672-0.55859 16.855-3.4609 22.137-8.7266-0.40234-9.3242 3.2188-18.684 6.4961-27.16 0.26172-0.69141 0.52344-1.3516 1.0469-2.7266 0.66406-1.7539 2.6211-2.6406 4.3789-1.9805 1.7539 0.66406 2.6406 2.6211 1.9805 4.3789-0.16797 0.4375-0.61719 1.6055-1.0742 2.7812-5.8711 15.168-13.012 33.648 11.387 47.73 0.93359 0.51172 1.8945 1.0078 2.875 1.4844 6.7852 3.2578 14.605 5.4023 22.559 5.9922 7.8789 0.58984 15.84-0.36328 22.961-3.2773 11.395-4.6484 20.711-14.449 24.125-31.219 0.10156-0.69141 0.42969-1.3516 0.96094-1.8867 1.3242-1.3242 3.4805-1.3164 4.7969 0.007812 8.2773 8.3633 17.426 11.789 25.992 11.656 6.1406-0.09375 12.02-2.0156 17.109-5.2539 4.4883-2.8672 8.3633-6.7461 11.238-11.332 0.066407-0.12109 0.14063-0.23437 0.21484-0.34375 0.32812-0.52344 0.63281-1.0625 0.92578-1.6055 2.3633-4.332 3.8438-9.2031 4.1797-14.344 0.027344-2.3047-0.16016-4.7305-0.61719-7.2227-1.4453-8.0078-5.5625-16.594-13.395-24.117-1.3516-1.2969-1.3906-3.4453-0.09375-4.7969s3.4453-1.3906 4.7969-0.09375c6.0586 5.8164 10.172 12.227 12.73 18.637 9.8945 2.7422 18.359-1.418 24.203-8.2695 2.6406-3.0977 4.7695-6.7578 6.2617-10.594 1.4922-3.8281 2.3633-7.8008 2.4844-11.547 0.24219-7.168-2.2305-13.516-8.1953-16.129-0.34375-0.12109-0.67188-0.29688-0.96875-0.54297-1.4648-1.168-1.707-3.3047-0.54297-4.7695 9.957-12.535 14.309-25.32 14.543-37.379 0.25391-12.523-3.9219-24.359-10.816-34.367-6.9453-10.078-16.641-18.301-27.395-23.559-11.656-5.6914-24.52-7.8672-36.363-5.0586-0.09375 0.019531-0.1875 0.039062-0.28125 0.054688-0.19531 0.027343-0.40234 0.039062-0.58984 0.039062-0.78516 0.19531-1.5586 0.41016-2.3242 0.64453-12.355 3.7695-21.102 11.992-25.77 17.875-1.168 1.4648-3.3047 1.707-4.7695 0.54297-1.4648-1.168-1.707-3.3047-0.54297-4.7695 5.2461-6.6094 15.102-15.855 29.121-20.133 0.16016-0.046875 0.31641-0.09375 0.47656-0.14062-2.8008-14.27-9.1484-24.492-17.352-31.109-5.1328-4.1445-11.023-6.8984-17.246-8.3828-6.2617-1.4844-12.852-1.6797-19.348-0.67969-13.074 2.0156-25.715 8.8281-34.41 19.57-1 1.3359-2.8477 1.7656-4.3477 0.94141-2.9023-1.5859-5.7109-2.8281-8.4375-3.7422-11.836-3.9844-22.457-2.1367-31.426 3.1172-9.2031 5.3867-16.773 14.336-22.242 24.312-2.3984 4.3789-4.3867 8.9336-5.918 13.449-0.42969 1.4922-1.8477 2.5469-3.4609 2.4531-9.2695-0.55078-16.707 0.69141-22.551 3.125-6.0391 2.5117-10.359 6.2891-13.242 10.641-0.074219 0.11328-0.14062 0.21484-0.21484 0.32812z"/>
  <use x="70" y="560.140625" xlink:href="#w"/>
  <use x="70.035156" y="560.140625" xlink:href="#e"/>
  <use x="70.058594" y="560.140625" xlink:href="#b"/>
  <use x="70.089844" y="560.140625" xlink:href="#a"/>
  <use x="70.121094" y="560.140625" xlink:href="#d"/>
  <use x="70.144531" y="560.140625" xlink:href="#b"/>
  <use x="70.175781" y="560.140625" xlink:href="#l"/>
  <use x="70.222656" y="560.140625" xlink:href="#k"/>
  <use x="70.257812" y="560.140625" xlink:href="#j"/>
  <use x="70.304688" y="560.140625" xlink:href="#i"/>
  <use x="70.34375" y="560.140625" xlink:href="#v"/>
  <use x="70.359375" y="560.140625" xlink:href="#b"/>
  <use x="70.390625" y="560.140625" xlink:href="#f"/>
  <use x="70.425781" y="560.140625" xlink:href="#a"/>
  <use x="70.472656" y="560.140625" xlink:href="#h"/>
  <use x="70.507812" y="560.140625" xlink:href="#a"/>
  <use x="70.539062" y="560.140625" xlink:href="#f"/>
  <use x="70.570312" y="560.140625" xlink:href="#a"/>
  <use x="70.601562" y="560.140625" xlink:href="#g"/>
  <use x="70.628906" y="560.140625" xlink:href="#c"/>
  <use x="70.664062" y="560.140625" xlink:href="#u"/>
  <use x="70.691406" y="560.140625" xlink:href="#g"/>
  <use x="70.722656" y="560.140625" xlink:href="#t"/>
  <use x="70.75" y="560.140625" xlink:href="#a"/>
  <use x="70" y="560.1875" xlink:href="#s"/>
  <use x="70.019531" y="560.1875" xlink:href="#e"/>
  <use x="70.042969" y="560.1875" xlink:href="#c"/>
  <use x="70.074219" y="560.1875" xlink:href="#r"/>
  <use x="70.140625" y="560.1875" xlink:href="#d"/>
  <use x="70.164062" y="560.1875" xlink:href="#q"/>
  <use x="70.195312" y="560.1875" xlink:href="#b"/>
  <use x="70.242188" y="560.1875" xlink:href="#p"/>
  <use x="70.28125" y="560.1875" xlink:href="#c"/>
  <use x="70.316406" y="560.1875" xlink:href="#o"/>
  <use x="70.347656" y="560.1875" xlink:href="#f"/>
  <use x="70.398438" y="560.1875" xlink:href="#h"/>
  <use x="70.433594" y="560.1875" xlink:href="#e"/>
  <use x="70.453125" y="560.1875" xlink:href="#c"/>
  <use x="70.488281" y="560.1875" xlink:href="#n"/>
  <use x="70.503906" y="560.1875" xlink:href="#b"/>
  <use x="70.535156" y="560.1875" xlink:href="#m"/>
  <use x="70.5625" y="560.1875" xlink:href="#d"/>
 </g>
</svg>
