<?xml version="1.0" encoding="utf-8"?>
<!-- Generator: Adobe Illustrator 27.6.1, SVG Export Plug-In . SVG Version: 6.00 Build 0)  -->
<svg version="1.1" id="Layer_1" xmlns="http://www.w3.org/2000/svg" xmlns:xlink="http://www.w3.org/1999/xlink" x="0px" y="0px"
	 viewBox="0 0 16 16" style="enable-background:new 0 0 16 16;" xml:space="preserve">
<style type="text/css">
	.st0{fill:#FFC200;}
</style>
<path class="st0" d="M7.7,6.2c0.1-0.3,0.6-0.3,0.7,0L9,8.2C9.3,9,10,9.7,10.8,10l1.9,0.6c0.3,0.1,0.3,0.6,0,0.7L10.8,12
	C10,12.3,9.3,13,9,13.8l-0.6,1.9C8.3,15.9,8.1,16,7.9,16c-0.1,0-0.2-0.1-0.2-0.2L7,13.8C6.7,13,6,12.3,5.2,12l-1.9-0.6
	C3.1,11.3,3,11.1,3,10.9c0-0.1,0.1-0.2,0.2-0.2L5.2,10C6,9.7,6.7,9,7,8.2C7,8.2,7.7,6.2,7.7,6.2z M3.8,1.1C3.8,1,4,1,4.1,1
	c0.1,0,0.1,0.1,0.1,0.1l0.4,1.2c0.2,0.5,0.6,0.9,1.1,1.1l1.2,0.4C7,3.8,7,4,7,4.1c0,0.1-0.1,0.1-0.1,0.1L5.7,4.6
	C5.2,4.8,4.8,5.2,4.6,5.7L4.2,6.9C4.2,7,4,7,3.9,7C3.9,7,3.8,6.9,3.8,6.9L3.4,5.7C3.2,5.2,2.8,4.8,2.3,4.6L1.1,4.2C1,4.2,1,4,1,3.9
	c0-0.1,0.1-0.1,0.1-0.1l1.2-0.4c0.5-0.2,0.9-0.6,1.1-1.1C3.4,2.3,3.8,1.1,3.8,1.1z M10.9,0.1C10.9,0,11,0,11,0c0,0,0.1,0,0.1,0.1
	l0.3,0.8c0.1,0.3,0.4,0.6,0.7,0.7l0.8,0.3C13,1.9,13,2,13,2c0,0,0,0.1-0.1,0.1l-0.8,0.3c-0.3,0.1-0.6,0.4-0.7,0.7l-0.3,0.8
	C11.1,4,11,4,11,4c0,0-0.1,0-0.1-0.1l-0.3-0.8c-0.1-0.3-0.4-0.6-0.7-0.7L9.1,2.1C9,2.1,9,2,9,2c0,0,0-0.1,0.1-0.1l0.8-0.3
	c0.3-0.1,0.6-0.4,0.7-0.7L10.9,0.1L10.9,0.1z"/>
</svg>
